<svg width="44" height="44" viewBox="0 0 44 44" fill="none" xmlns="http://www.w3.org/2000/svg">
<rect width="44" height="44" rx="22" fill="white"/>
<mask id="mask0_1_3810" style="mask-type:luminance" maskUnits="userSpaceOnUse" x="13" y="11" width="18" height="17">
<path fill-rule="evenodd" clip-rule="evenodd" d="M13.75 11.9165H30.7055V27.8188H13.75V11.9165Z" fill="white"/>
</mask>
<g mask="url(#mask0_1_3810)">
<path fill-rule="evenodd" clip-rule="evenodd" d="M22.2264 13.2915C19.0227 13.2915 16.7897 15.8013 16.7897 18.0536C16.7897 19.9593 16.2608 20.8403 15.7933 21.6176C15.4183 22.2418 15.1223 22.735 15.1223 23.8066C15.2753 25.5354 16.4166 26.4438 22.2264 26.4438C28.0042 26.4438 29.1812 25.4951 29.3333 23.747C29.3306 22.735 29.0345 22.2418 28.6596 21.6176C28.1921 20.8403 27.6632 19.9593 27.6632 18.0536C27.6632 15.8013 25.4302 13.2915 22.2264 13.2915M22.2264 27.8188C17.9401 27.8188 14.0663 27.5163 13.75 23.8653C13.7473 22.3546 14.2083 21.5864 14.6153 20.9099C15.0269 20.2243 15.4147 19.578 15.4147 18.0536C15.4147 15.09 18.1518 11.9165 22.2264 11.9165C26.301 11.9165 29.0382 15.09 29.0382 18.0536C29.0382 19.578 29.4259 20.2243 29.8375 20.9099C30.2445 21.5864 30.7056 22.3546 30.7056 23.8066C30.3857 27.5163 26.5128 27.8188 22.2264 27.8188" fill="#191D31"/>
</g>
<path fill-rule="evenodd" clip-rule="evenodd" d="M22.1817 31.6251H22.1799C21.1523 31.6241 20.1797 31.1713 19.4418 30.3491C19.1879 30.0676 19.2108 29.6322 19.4931 29.3792C19.7754 29.1244 20.2099 29.1473 20.4639 29.4306C20.9387 29.9595 21.5483 30.2501 22.1808 30.2501H22.1817C22.8169 30.2501 23.4293 29.9595 23.905 29.4296C24.1599 29.1482 24.5944 29.1253 24.8758 29.3792C25.1581 29.6331 25.181 30.0686 24.9271 30.35C24.1864 31.1722 23.212 31.6251 22.1817 31.6251" fill="#191D31"/>
<circle cx="27" cy="17" r="4" fill="#0061FF"/>
</svg>
