<svg width="18" height="24" viewBox="0 0 18 24" fill="none" xmlns="http://www.w3.org/2000/svg">
<path fill-rule="evenodd" clip-rule="evenodd" d="M8.7353 23.2222C4.42818 23.2222 0.75 22.552 0.75 19.8677C0.75 17.1835 4.40485 14.7056 8.7353 14.7056C13.0424 14.7056 16.7206 17.1595 16.7206 19.8437C16.7206 22.5269 13.0658 23.2222 8.7353 23.2222Z" stroke="#191D31" stroke-width="1.5" stroke-linecap="round" stroke-linejoin="round"/>
<path fill-rule="evenodd" clip-rule="evenodd" d="M8.72679 10.9859C11.5533 10.9859 13.8442 8.695 13.8442 5.86848C13.8442 3.04197 11.5533 0.75 8.72679 0.75C5.90028 0.75 3.60831 3.04197 3.60831 5.86848C3.59876 8.68545 5.87376 10.9764 8.69073 10.9859C8.70346 10.9859 8.71513 10.9859 8.72679 10.9859Z" stroke="#191D31" stroke-width="1.5" stroke-linecap="round" stroke-linejoin="round"/>
</svg>
