<svg width="16" height="16" viewBox="0 0 16 16" fill="none" xmlns="http://www.w3.org/2000/svg">
<g clip-path="url(#clip0_1_3495)">
<path d="M1 11.9999C1.00086 12.4197 1.09039 12.8347 1.26271 13.2175C1.43504 13.6003 1.68629 13.9425 2 14.2215V15.4999C2 15.6325 2.05268 15.7597 2.14645 15.8535C2.24021 15.9472 2.36739 15.9999 2.5 15.9999H3.5C3.63261 15.9999 3.75979 15.9472 3.85355 15.8535C3.94732 15.7597 4 15.6325 4 15.4999V14.9999H12V15.4999C12 15.6325 12.0527 15.7597 12.1464 15.8535C12.2402 15.9472 12.3674 15.9999 12.5 15.9999H13.5C13.6326 15.9999 13.7598 15.9472 13.8536 15.8535C13.9473 15.7597 14 15.6325 14 15.4999V14.2215C14.3137 13.9425 14.565 13.6003 14.7373 13.2175C14.9096 12.8347 14.9991 12.4197 15 11.9999L15.5 9.4999L1 10.4999V11.9999ZM15.5 7.9999H2.5V2.16397C2.50028 2.03274 2.53943 1.90453 2.61249 1.79552C2.68555 1.68651 2.78926 1.60158 2.91053 1.55144C3.0318 1.5013 3.16521 1.4882 3.29392 1.51379C3.42263 1.53937 3.54088 1.6025 3.63375 1.69522L4.23594 2.29709C3.82563 3.23084 3.99812 4.14428 4.50531 4.78865L4.5 4.79397C4.40659 4.88769 4.35414 5.01461 4.35414 5.14694C4.35414 5.27926 4.40659 5.40618 4.5 5.4999L4.85344 5.85334C4.89987 5.89978 4.95499 5.93662 5.01566 5.96176C5.07633 5.98689 5.14136 5.99983 5.20703 5.99983C5.2727 5.99983 5.33773 5.98689 5.3984 5.96176C5.45907 5.93662 5.51419 5.89978 5.56063 5.85334L8.85344 2.56053C8.89988 2.5141 8.93672 2.45897 8.96185 2.3983C8.98699 2.33763 8.99992 2.27261 8.99992 2.20694C8.99992 2.14127 8.98699 2.07624 8.96185 2.01557C8.93672 1.9549 8.89988 1.89977 8.85344 1.85334L8.5 1.4999C8.40624 1.40621 8.27911 1.35357 8.14656 1.35357C8.01401 1.35357 7.88688 1.40621 7.79313 1.4999L7.78781 1.50522C7.14344 0.99803 6.23062 0.82553 5.29625 1.23584L4.69438 0.633655C4.39172 0.330969 4.00611 0.124834 3.5863 0.0413179C3.16649 -0.0421977 2.73134 0.000658289 2.33589 0.164466C1.94043 0.328273 1.60244 0.605674 1.36465 0.961585C1.12687 1.3175 0.999965 1.73593 1 2.16397V7.9999H0.5C0.367392 7.9999 0.240215 8.05258 0.146447 8.14635C0.0526784 8.24012 0 8.3673 0 8.4999L0 8.9999C0 9.13251 0.0526784 9.25969 0.146447 9.35346C0.240215 9.44723 0.367392 9.4999 0.5 9.4999H15.5C15.6326 9.4999 15.7598 9.44723 15.8536 9.35346C15.9473 9.25969 16 9.13251 16 8.9999V8.4999C16 8.3673 15.9473 8.24012 15.8536 8.14635C15.7598 8.05258 15.6326 7.9999 15.5 7.9999Z" fill="#8B5DFF"/>
</g>
<defs>
<clipPath id="clip0_1_3495">
<rect width="16" height="16" fill="white"/>
</clipPath>
</defs>
</svg>
