<svg width="12" height="12" viewBox="0 0 12 12" fill="none" xmlns="http://www.w3.org/2000/svg">
<path fill-rule="evenodd" clip-rule="evenodd" d="M1.53333 2.46667L0.566667 3.43333C0.36 3.64 0 3.49333 0 3.19333V0.333333C0 0.146667 0.146667 0 0.333333 0H3.19333C3.49333 0 3.64 0.36 3.43333 0.566667L2.46667 1.53333L3.92 2.97333C4.18 3.23333 4.18 3.66 3.92 3.92C3.66 4.18 3.23333 4.18 2.97333 3.92L1.53333 2.46667ZM9.53333 1.53333L8.56667 0.566667C8.36 0.36 8.50667 0 8.80667 0H11.6667C11.8533 0 12 0.146667 12 0.333333V3.19333C12 3.49333 11.64 3.64 11.4333 3.43333L10.4667 2.46667L9.02667 3.92C8.76667 4.18 8.34 4.18 8.08 3.92C7.82 3.66 7.82 3.23333 8.08 2.97333L9.53333 1.53333ZM3.43333 11.4333L2.46667 10.4667L3.92 9.02667C4.18 8.76667 4.18 8.34 3.92 8.08C3.66 7.82 3.23333 7.82 2.97333 8.08L1.53333 9.53333L0.566667 8.56667C0.36 8.36 0 8.50667 0 8.80667V11.6667C0 11.8533 0.146667 12 0.333333 12H3.19333C3.49333 12 3.64 11.64 3.43333 11.4333ZM10.4667 9.53333L11.4333 8.56667C11.64 8.36 12 8.50667 12 8.80667V11.6667C12 11.8533 11.8533 12 11.6667 12H8.80667C8.50667 12 8.36 11.64 8.56667 11.4333L9.53333 10.4667L8.08 9.02667C7.82 8.76667 7.82 8.34 8.08 8.08C8.34 7.82 8.76667 7.82 9.02667 8.08L10.4667 9.53333Z" fill="black"/>
</svg>
