<svg width="24" height="23" viewBox="0 0 24 23" fill="none" xmlns="http://www.w3.org/2000/svg">
<mask id="mask0_2040_1710" style="mask-type:luminance" maskUnits="userSpaceOnUse" x="0" y="0" width="24" height="23">
<path fill-rule="evenodd" clip-rule="evenodd" d="M0 0H23.8846V22.7512H0V0Z" fill="white"/>
</mask>
<g mask="url(#mask0_2040_1710)">
<path fill-rule="evenodd" clip-rule="evenodd" d="M2.12764 10.6436C3.76331 15.7326 10.2255 19.8475 11.9428 20.866C13.666 19.837 20.1748 15.6766 21.758 10.6483C22.7975 7.39797 21.8326 3.2808 17.999 2.0453C16.1416 1.44914 13.9751 1.81197 12.4795 2.9693C12.1668 3.20964 11.7328 3.2143 11.4178 2.9763C9.83348 1.78514 7.76381 1.4363 5.87731 2.0453C2.04948 3.27964 1.08814 7.3968 2.12764 10.6436M11.944 22.7513C11.7993 22.7513 11.6558 22.7163 11.5251 22.6451C11.16 22.4456 2.55814 17.7043 0.461644 11.178C0.460478 11.178 0.460478 11.1768 0.460478 11.1768C-0.855522 7.0678 0.609811 1.90414 5.34064 0.379304C7.56198 -0.339362 9.98281 -0.0231956 11.9405 1.2123C13.8375 0.0129711 16.3575 -0.318362 18.5345 0.379304C23.27 1.90647 24.74 7.06897 23.4251 11.1768C21.3963 17.6285 12.7315 22.441 12.364 22.6428C12.2333 22.7151 12.0886 22.7513 11.944 22.7513" fill="currentColor"/>
</g>
<path fill-rule="evenodd" clip-rule="evenodd" d="M18.846 8.89598C18.3945 8.89598 18.0118 8.54948 17.9745 8.09214C17.8975 7.13314 17.2558 6.32348 16.3423 6.02831C15.8815 5.87898 15.6295 5.38548 15.7777 4.92698C15.9282 4.46731 16.417 4.21764 16.879 4.36231C18.4692 4.87681 19.5833 6.28498 19.7198 7.94981C19.7583 8.43164 19.4002 8.85398 18.9183 8.89248C18.8938 8.89481 18.8705 8.89598 18.846 8.89598" fill="currentColor"/>
</svg>