<svg width="15" height="14" viewBox="0 0 15 14" fill="none" xmlns="http://www.w3.org/2000/svg">
<path fill-rule="evenodd" clip-rule="evenodd" d="M5.90008 11.3271H0.649246C0.304246 11.3271 0.0242462 11.0471 0.0242462 10.7021C0.0242462 10.3571 0.304246 10.0771 0.649246 10.0771H5.90008C6.24508 10.0771 6.52508 10.3571 6.52508 10.7021C6.52508 11.0471 6.24508 11.3271 5.90008 11.3271" fill="#8C8E98"/>
<path fill-rule="evenodd" clip-rule="evenodd" d="M13.4924 3.25H8.24242C7.89742 3.25 7.61742 2.97 7.61742 2.625C7.61742 2.28 7.89742 2 8.24242 2H13.4924C13.8374 2 14.1174 2.28 14.1174 2.625C14.1174 2.97 13.8374 3.25 13.4924 3.25" fill="#8C8E98"/>
<mask id="mask0_2067_1772" style="mask-type:luminance" maskUnits="userSpaceOnUse" x="0" y="0" width="6" height="6">
<path fill-rule="evenodd" clip-rule="evenodd" d="M0 0H5.18817V5.15967H0V0Z" fill="white"/>
</mask>
<g mask="url(#mask0_2067_1772)">
<path fill-rule="evenodd" clip-rule="evenodd" d="M2.594 1.25C1.85317 1.25 1.24983 1.84667 1.24983 2.58083C1.24983 3.31417 1.85317 3.91 2.594 3.91C3.33567 3.91 3.93817 3.31417 3.93817 2.58083C3.93817 1.84667 3.33567 1.25 2.594 1.25M2.594 5.16C1.164 5.16 -0.000167847 4.00333 -0.000167847 2.58083C-0.000167847 1.15833 1.164 0 2.594 0C4.02483 0 5.18817 1.15833 5.18817 2.58083C5.18817 4.00333 4.02483 5.16 2.594 5.16" fill="#8C8E98"/>
</g>
<path fill-rule="evenodd" clip-rule="evenodd" d="M11.9898 9.33984C11.2481 9.33984 10.6448 9.93651 10.6448 10.6698C10.6448 11.404 11.2481 11.9998 11.9898 11.9998C12.7306 11.9998 13.3331 11.404 13.3331 10.6698C13.3331 9.93651 12.7306 9.33984 11.9898 9.33984M11.9898 13.2498C10.5589 13.2498 9.39475 12.0923 9.39475 10.6698C9.39475 9.24734 10.5589 8.08984 11.9898 8.08984C13.4198 8.08984 14.5831 9.24734 14.5831 10.6698C14.5831 12.0923 13.4198 13.2498 11.9898 13.2498" fill="#8C8E98"/>
</svg>
