<svg width="28" height="28" viewBox="0 0 28 28" fill="none" xmlns="http://www.w3.org/2000/svg">
<path d="M7.00001 5.83325V22.1666H10.5V15.1666H17.5V22.1666H21V5.83325H17.5V12.8333H10.5V5.83325H7.00001ZM3.50001 17.4999C3.50001 17.8093 3.62293 18.1061 3.84172 18.3249C4.06051 18.5437 4.35726 18.6666 4.66668 18.6666H5.83334V9.33325H4.66668C4.35726 9.33325 4.06051 9.45617 3.84172 9.67496C3.62293 9.89375 3.50001 10.1905 3.50001 10.4999V12.8333H2.33334V15.1666H3.50001V17.4999ZM24.5 10.4999C24.5 10.1905 24.3771 9.89375 24.1583 9.67496C23.9395 9.45617 23.6428 9.33325 23.3333 9.33325H22.1667V18.6666H23.3333C23.6428 18.6666 23.9395 18.5437 24.1583 18.3249C24.3771 18.1061 24.5 17.8093 24.5 17.4999V15.1666H25.6667V12.8333H24.5V10.4999Z" fill="#0061FF"/>
</svg>
