<svg width="28" height="28" viewBox="0 0 28 28" fill="none" xmlns="http://www.w3.org/2000/svg">
<path d="M4.66667 25.6666H23.3333C23.6428 25.6666 23.9395 25.5437 24.1583 25.3249C24.3771 25.1061 24.5 24.8093 24.5 24.4999V5.83325C24.5 3.90359 22.9297 2.33325 21 2.33325H7C5.07033 2.33325 3.5 3.90359 3.5 5.83325V24.4999C3.5 24.8093 3.62292 25.1061 3.84171 25.3249C4.0605 25.5437 4.35725 25.6666 4.66667 25.6666ZM21 4.57792C21.1532 4.57792 21.3049 4.6081 21.4465 4.66673C21.588 4.72536 21.7166 4.81129 21.825 4.91963C21.9333 5.02796 22.0192 5.15657 22.0779 5.29812C22.1365 5.43967 22.1667 5.59138 22.1667 5.74459C22.1667 5.89779 22.1365 6.0495 22.0779 6.19105C22.0192 6.3326 21.9333 6.46121 21.825 6.56954C21.7166 6.67788 21.588 6.76381 21.4465 6.82244C21.3049 6.88108 21.1532 6.91125 21 6.91125C20.6906 6.91125 20.3938 6.78834 20.175 6.56954C19.9562 6.35075 19.8333 6.054 19.8333 5.74459C19.8333 5.43517 19.9562 5.13842 20.175 4.91963C20.3938 4.70083 20.6906 4.57792 21 4.57792ZM17.5 4.57792C17.6532 4.57792 17.8049 4.6081 17.9465 4.66673C18.088 4.72536 18.2166 4.81129 18.325 4.91963C18.4333 5.02796 18.5192 5.15657 18.5779 5.29812C18.6365 5.43967 18.6667 5.59138 18.6667 5.74459C18.6667 5.89779 18.6365 6.0495 18.5779 6.19105C18.5192 6.3326 18.4333 6.46121 18.325 6.56954C18.2166 6.67788 18.088 6.76381 17.9465 6.82244C17.8049 6.88108 17.6532 6.91125 17.5 6.91125C17.1906 6.91125 16.8938 6.78834 16.675 6.56954C16.4562 6.35075 16.3333 6.054 16.3333 5.74459C16.3333 5.43517 16.4562 5.13842 16.675 4.91963C16.8938 4.70083 17.1906 4.57792 17.5 4.57792ZM14 8.16659C17.8605 8.16659 21 11.3061 21 15.1666C21 19.0271 17.8605 22.1666 14 22.1666C10.1395 22.1666 7 19.0271 7 15.1666C7 11.3061 10.1395 8.16659 14 8.16659Z" fill="#0061FF"/>
<path d="M14.8936 19.7504C16.5258 19.4459 17.8931 18.2163 18.4205 16.6413C18.8023 15.5358 18.7383 14.3251 18.242 13.2661C18.1876 13.1496 18.0949 13.0553 17.9795 12.9988C17.864 12.9423 17.7326 12.9271 17.6073 12.9558C16.9026 13.1296 16.4185 13.4784 15.8573 13.8903C14.9403 14.5634 13.7981 15.3999 11.6666 15.3999C10.7181 15.3999 9.97497 15.2296 9.35197 14.9869L9.33681 14.9974C9.31213 15.6997 9.44614 16.3985 9.72884 17.0418C10.0116 17.6851 10.4357 18.2564 10.9697 18.7132C11.5037 19.1699 12.1338 19.5004 12.8132 19.68C13.4926 19.8596 14.2037 19.8836 14.8936 19.7504Z" fill="#0061FF"/>
</svg>
