<svg width="25" height="25" viewBox="0 0 25 25" fill="none" xmlns="http://www.w3.org/2000/svg">
<path fill-rule="evenodd" clip-rule="evenodd" d="M20.6664 20.6648C17.1009 24.2307 11.8213 25.0011 7.50068 23.003C6.86285 22.7462 6.33993 22.5387 5.8428 22.5387C4.4581 22.5469 2.73456 23.8895 1.83878 22.9948C0.943008 22.0989 2.28667 20.374 2.28667 18.981C2.28667 18.4838 2.08735 17.9702 1.83057 17.3311C-0.168501 13.0112 0.60299 7.7298 4.1685 4.16507C8.72006 -0.388163 16.1149 -0.388162 20.6664 4.1639C25.2262 8.72417 25.218 16.1128 20.6664 20.6648Z" stroke="#8B5DFF" stroke-width="1.5" stroke-linecap="round" stroke-linejoin="round"/>
<path d="M17.0125 12.8985H17.023" stroke="#8B5DFF" stroke-width="2" stroke-linecap="round" stroke-linejoin="round"/>
<path d="M12.3353 12.8985H12.3458" stroke="#8B5DFF" stroke-width="2" stroke-linecap="round" stroke-linejoin="round"/>
<path d="M7.65816 12.8985H7.66866" stroke="#8B5DFF" stroke-width="2" stroke-linecap="round" stroke-linejoin="round"/>
</svg>
