<svg width="28" height="28" viewBox="0 0 28 28" fill="none" xmlns="http://www.w3.org/2000/svg">
<path d="M3.50001 23.0103V24.5001C3.50001 24.8095 3.62293 25.1063 3.84172 25.325C4.06051 25.5438 4.35726 25.6667 4.66668 25.6667H5.83334C6.14276 25.6667 6.43951 25.5438 6.6583 25.325C6.87709 25.1063 7.00001 24.8095 7.00001 24.5001V23.3334H21V24.5001C21 24.8095 21.1229 25.1063 21.3417 25.325C21.5605 25.5438 21.8573 25.6667 22.1667 25.6667H23.3333C23.6428 25.6667 23.9395 25.5438 24.1583 25.325C24.3771 25.1063 24.5 24.8095 24.5 24.5001V23.0103C24.854 22.8073 25.1482 22.5146 25.353 22.1617C25.5578 21.8088 25.666 21.4081 25.6667 21.0001V17.5001C25.6667 16.5306 25.0752 15.7011 24.234 15.3476L22.638 10.5596C22.4065 9.86248 21.9612 9.25607 21.3653 8.82651C20.7695 8.39695 20.0534 8.1661 19.3188 8.16675H8.68118C7.94663 8.1661 7.23056 8.39695 6.63471 8.82651C6.03886 9.25607 5.59353 9.86248 5.36201 10.5596L3.76601 15.3476C3.34169 15.5253 2.97934 15.8244 2.72445 16.2074C2.46956 16.5903 2.3335 17.0401 2.33334 17.5001V21.0001C2.33334 21.8611 2.80468 22.6054 3.50001 23.0103ZM6.41668 21.0001C6.18679 21 5.95916 20.9546 5.7468 20.8666C5.53444 20.7786 5.3415 20.6495 5.179 20.4869C4.85081 20.1585 4.66652 19.7132 4.66668 19.2489C4.66683 18.7846 4.85142 18.3394 5.17982 18.0112C5.50823 17.683 5.95356 17.4988 6.41784 17.4989C6.88213 17.4991 7.32733 17.6837 7.65552 18.0121C7.98371 18.3405 8.168 18.7858 8.16784 19.2501C8.16769 19.7144 7.9831 20.1596 7.6547 20.4878C7.32629 20.816 6.88096 21.0002 6.41668 21.0001ZM21.5833 21.0001C21.1191 20.9999 20.6739 20.8153 20.3457 20.4869C20.0175 20.1585 19.8332 19.7132 19.8333 19.2489C19.8335 18.7846 20.0181 18.3394 20.3465 18.0112C20.6749 17.683 21.1202 17.4988 21.5845 17.4989C22.0488 17.4991 22.494 17.6837 22.8222 18.0121C23.1504 18.3405 23.3347 18.7858 23.3345 19.2501C23.3344 19.7144 23.1498 20.1596 22.8214 20.4878C22.493 20.816 22.0476 21.0002 21.5833 21.0001ZM8.68118 10.5001H19.3177C19.5626 10.5 19.8014 10.5771 20.0001 10.7203C20.1988 10.8635 20.3474 11.0657 20.4248 11.2981L21.7152 15.1667H6.28484L7.57401 11.2981C7.73384 10.8209 8.17951 10.5001 8.68118 10.5001Z" fill="#0061FF"/>
<path d="M25.6667 8.61935V6.15885L14.3687 2.39285C14.119 2.30928 13.8483 2.31298 13.601 2.40335L2.33334 6.50069V8.98335L14.0175 4.73435L25.6667 8.61935Z" fill="#0061FF"/>
</svg>
