<svg width="28" height="28" viewBox="0 0 28 28" fill="none" xmlns="http://www.w3.org/2000/svg">
<path d="M24.5 6.99992H22.1667L20.685 5.51825C20.1492 4.98185 19.4248 4.6762 18.6667 4.66659H15.75C15.5866 4.01185 15.2127 3.4289 14.6857 3.00734C14.1588 2.58579 13.508 2.34895 12.8333 2.33325V9.75325C12.8933 10.9315 13.3591 12.0527 14.1517 12.9266C15.4567 14.1811 17.1636 14.9333 18.97 15.0499L22.995 13.4399C23.4673 13.2503 23.8925 12.9601 24.2411 12.5893C24.5897 12.2186 24.8532 11.7763 25.0133 11.2933L25.6667 9.50825C25.6844 9.38835 25.6844 9.26649 25.6667 9.14659V8.16658C25.6667 7.85717 25.5438 7.56042 25.325 7.34163C25.1062 7.12284 24.8094 6.99992 24.5 6.99992ZM18.6667 9.33325C18.4359 9.33325 18.2104 9.26483 18.0185 9.13663C17.8267 9.00844 17.6771 8.82623 17.5888 8.61305C17.5005 8.39987 17.4774 8.16529 17.5224 7.93898C17.5674 7.71267 17.6786 7.50479 17.8417 7.34163C18.0049 7.17847 18.2128 7.06735 18.4391 7.02234C18.6654 6.97732 18.9 7.00042 19.1131 7.08873C19.3263 7.17703 19.5085 7.32656 19.6367 7.51842C19.7649 7.71028 19.8333 7.93584 19.8333 8.16658C19.8333 8.476 19.7104 8.77275 19.4916 8.99154C19.2728 9.21034 18.9761 9.33325 18.6667 9.33325Z" fill="#0061FF"/>
<path d="M13.2767 13.6967C12.4628 12.8053 11.9311 11.6931 11.7483 10.5H7.00001C6.68826 10.5206 6.37569 10.4744 6.08325 10.3644C5.79081 10.2545 5.52523 10.0833 5.30431 9.86237C5.08338 9.64145 4.9122 9.37587 4.80224 9.08343C4.69227 8.79098 4.64605 8.47842 4.66668 8.16667C4.66668 7.85725 4.54376 7.5605 4.32497 7.34171C4.10618 7.12292 3.80943 7 3.50001 7C3.19059 7 2.89384 7.12292 2.67505 7.34171C2.45626 7.5605 2.33334 7.85725 2.33334 8.16667C2.34506 8.9763 2.53633 9.77324 2.89334 10.5C3.28692 11.2631 3.90614 11.8864 4.66668 12.285V25.6667H8.16668V19.8333H15.1667V25.6667H18.6667V16.1817C16.6315 16.0214 14.7203 15.1402 13.2767 13.6967Z" fill="#0061FF"/>
</svg>
