<svg width="28" height="28" viewBox="0 0 28 28" fill="none" xmlns="http://www.w3.org/2000/svg">
<path d="M22.1702 9.33808C23.4601 9.33808 24.5058 8.29237 24.5058 7.00241C24.5058 5.71246 23.4601 4.66675 22.1702 4.66675C20.8802 4.66675 19.8345 5.71246 19.8345 7.00241C19.8345 8.29237 20.8802 9.33808 22.1702 9.33808Z" fill="#0061FF"/>
<path d="M22.0208 15.4222C21.3593 15.9507 20.8798 16.3334 19.8298 16.3334C18.781 16.3334 18.3272 15.9705 17.6412 15.4222C16.8478 14.7887 15.862 14 13.993 14C12.1252 14 11.1405 14.7887 10.3483 15.4222C9.66234 15.9705 9.21084 16.3334 8.16084 16.3334C7.11318 16.3334 6.66051 15.9705 5.97568 15.4234C5.18351 14.7887 4.20001 14 2.33334 14V16.3334C3.37984 16.3334 3.83251 16.6962 4.51734 17.2434C5.30951 17.878 6.29418 18.6667 8.16084 18.6667C10.0275 18.6667 11.0145 17.878 11.8067 17.2434C12.4915 16.695 12.9453 16.3334 13.993 16.3334C15.043 16.3334 15.5225 16.716 16.184 17.2445C16.9762 17.878 17.962 18.6667 19.8298 18.6667C21.6988 18.6667 22.6847 17.878 23.478 17.2445C24.164 16.6962 24.6178 16.3334 25.6667 16.3334V14C23.7988 14 22.813 14.7887 22.0208 15.4222ZM19.8298 22.1667C18.781 22.1667 18.3272 21.8039 17.6412 21.2555C16.8478 20.622 15.862 19.8334 13.993 19.8334C12.1252 19.8334 11.1405 20.622 10.3483 21.2555C9.66234 21.8039 9.21084 22.1667 8.16084 22.1667C7.11318 22.1667 6.66051 21.8039 5.97568 21.2567C5.18351 20.622 4.20001 19.8334 2.33334 19.8334V22.1667C3.37984 22.1667 3.83251 22.5295 4.51734 23.0767C5.30951 23.7114 6.29418 24.5 8.16084 24.5C10.0275 24.5 11.0145 23.7114 11.8067 23.0767C12.4915 22.5284 12.9453 22.1667 13.993 22.1667C15.043 22.1667 15.5225 22.5494 16.184 23.0779C16.9762 23.7114 17.962 24.5 19.8298 24.5C21.6988 24.5 22.6847 23.7114 23.478 23.0779C24.164 22.5295 24.6178 22.1667 25.6667 22.1667V19.8334C23.7988 19.8334 22.813 20.622 22.0208 21.2555C21.3593 21.784 20.8798 22.1667 19.8298 22.1667ZM12.8333 6.32218L15.288 8.77685L12.8882 11.7752C13.2218 11.7099 13.5835 11.6667 13.993 11.6667C15.862 11.6667 16.8478 12.4553 17.6412 13.0889C18.3272 13.6372 18.781 14 19.8298 14C20.8798 14 21.3593 13.6174 22.0208 13.0889C22.1748 12.9664 22.3405 12.8357 22.5143 12.7085L20.069 10.2702L20.0748 10.2644L13.6582 3.84768C13.5499 3.73925 13.4214 3.65322 13.2798 3.59452C13.1383 3.53583 12.9866 3.50562 12.8333 3.50562C12.6801 3.50562 12.5284 3.53583 12.3869 3.59452C12.2453 3.65322 12.1168 3.73925 12.0085 3.84768L7.34184 8.51435L8.99151 10.164L12.8333 6.32218Z" fill="#0061FF"/>
</svg>
