<svg width="28" height="28" viewBox="0 0 28 28" fill="none" xmlns="http://www.w3.org/2000/svg">
<path d="M14 7.00008C18.1265 7.00008 21.9765 8.57858 24.8418 11.4439L26.4915 9.79425C23.1863 6.48792 18.7495 4.66675 14 4.66675C9.25051 4.66791 4.81368 6.48792 1.50851 9.79425L3.15818 11.4439C6.02351 8.57858 9.87351 7.00008 14 7.00008ZM20.6162 16.6916C17.0298 13.1052 10.9702 13.1052 7.38385 16.6916L9.03351 18.3412C11.725 15.6497 16.275 15.6497 18.9665 18.3412L20.6162 16.6916Z" fill="#0061FF"/>
<path d="M23.8432 13.1751C18.5092 7.83877 9.49199 7.83877 4.15799 13.1751L5.80766 14.8248C10.2492 10.3833 17.752 10.3833 22.1935 14.8248L23.8432 13.1751Z" fill="#0061FF"/>
<path d="M14 23.3334C15.2887 23.3334 16.3333 22.2887 16.3333 21.0001C16.3333 19.7114 15.2887 18.6667 14 18.6667C12.7113 18.6667 11.6667 19.7114 11.6667 21.0001C11.6667 22.2887 12.7113 23.3334 14 23.3334Z" fill="#0061FF"/>
</svg>
